<svg id="Layer_1" data-name="Layer 1" xmlns="http://www.w3.org/2000/svg" viewBox="0 0 148.36 55.57"><defs><style>.cls-1,.cls-3,.cls-6{fill:#fff;}.cls-2{fill:#3056d3;fill-rule:evenodd;}.cls-3{font-size:36px;font-family:Mali-Bold, Mali;font-weight:700;}.cls-4{font-size:24px;letter-spacing:0em;}.cls-5{letter-spacing:0em;}.cls-6{font-size:12px;font-family:Mali-Medium, Mali;font-weight:500;}</style></defs><path class="cls-1" d="M20,40A20,20,0,1,0,0,20,20,20,0,0,0,20,40Z"/><path class="cls-2" d="M15.08,5.74c2.27,0,4.11,2.83,4.11,6.31s-1.84,6.31-4.11,6.31S11,15.53,11,12.05s1.84-6.31,4.12-6.31ZM20.31,21c4.82,0,5.42,3.2,9.48,8.67,2,4-.61,6.48-5.11,5.4a9.93,9.93,0,0,0-4.93-1.36c-2.5.09-3.13,1.74-6,1.62-2.24-.06-3.25-1-3.44-2.43s.37-2.48,1.09-3.74c2.78-4.91,5.65-8.77,9-8.16ZM7.13,15.1c-1.7.67-2.24,3.32-1.21,5.93s3.24,4.17,4.94,3.49,2.24-3.32,1.21-5.93S8.83,14.42,7.13,15.1Zm25.46,0c1.7.67,2.25,3.32,1.22,5.93s-3.25,4.17-4.94,3.49-2.24-3.32-1.22-5.93,3.25-4.17,4.94-3.49Zm-8-9.45c2.27,0,4.12,2.83,4.12,6.31s-1.85,6.31-4.12,6.31S20.46,15.44,20.46,12s1.84-6.31,4.11-6.31Z"/><text class="cls-3" transform="translate(49.76 34)">NE<tspan class="cls-4" x="50.36" y="0">KO</tspan><tspan class="cls-5" x="85.64" y="0"> </tspan></text><text class="cls-6" transform="translate(101.13 14.94)">CARE</text></svg>