<?xml version="1.0" encoding="utf-8"?>
<!-- Generator: Adobe Illustrator 26.2.1, SVG Export Plug-In . SVG Version: 6.00 Build 0)  -->
<svg version="1.1" id="Layer_1" xmlns="http://www.w3.org/2000/svg" xmlns:xlink="http://www.w3.org/1999/xlink" x="0px" y="0px"
	 viewBox="0 0 157 55" style="enable-background:new 0 0 157 55;" xml:space="preserve">
<style type="text/css">
	.st0{fill:#FFFFFF;}
	.st1{fill-rule:evenodd;clip-rule:evenodd;fill:#3056D3;}
	.st2{font-family:'Mali-Bold';}
	.st3{font-size:36px;}
	.st4{font-size:24px;}
	.st5{font-family:'Mali-Medium';}
	.st6{font-size:12px;}
</style>
<path class="st0" d="M20,47c11,0,20-9,20-20S31,7,20,7S0,16,0,27S9,47,20,47z"/>
<g>
	<path class="st1" d="M15.1,12.7c2.3,0,4.1,2.8,4.1,6.3s-1.8,6.3-4.1,6.3S11,22.5,11,19C11,15.6,12.8,12.7,15.1,12.7L15.1,12.7z
		 M20.3,28c4.8,0,5.4,3.2,9.5,8.7c2,4-0.6,6.5-5.1,5.4c-2-1-3.5-1.4-4.9-1.4c-2.5,0.1-3.1,1.7-6,1.6c-2.2-0.1-3.3-1-3.4-2.4
		c-0.2-1.5,0.4-2.5,1.1-3.7C14.1,31.3,17,27.4,20.3,28L20.3,28L20.3,28z M7.1,22.1c-1.7,0.7-2.2,3.3-1.2,5.9s3.2,4.2,4.9,3.5
		s2.2-3.3,1.2-5.9S8.8,21.4,7.1,22.1L7.1,22.1z M32.6,22.1c1.7,0.7,2.2,3.3,1.2,5.9c-1,2.6-3.2,4.2-4.9,3.5
		c-1.7-0.7-2.2-3.3-1.2-5.9C28.7,23,30.9,21.4,32.6,22.1L32.6,22.1z M24.6,12.7c2.3,0,4.1,2.8,4.1,6.3s-1.8,6.3-4.1,6.3
		s-4.1-2.8-4.1-6.3C20.5,15.5,22.3,12.7,24.6,12.7L24.6,12.7z"/>
</g>
<text transform="matrix(1 0 0 1 49.7592 41.0009)"><tspan x="0" y="0" class="st0 st2 st3">NE</tspan><tspan x="50.4" y="0" class="st0 st2 st4">KO</tspan><tspan x="85.6" y="0" class="st0 st2 st3"> </tspan></text>
<text transform="matrix(1 0 0 1 101.1322 21.9399)" class="st0 st5 st6">CARE</text>
</svg>
