<?xml version="1.0" encoding="utf-8"?>
<!-- Generator: Adobe Illustrator 26.2.1, SVG Export Plug-In . SVG Version: 6.00 Build 0)  -->
<svg version="1.1" id="Layer_1" xmlns="http://www.w3.org/2000/svg" xmlns:xlink="http://www.w3.org/1999/xlink" x="0px" y="0px"
	 viewBox="0 0 157 56" style="enable-background:new 0 0 157 56;" xml:space="preserve">
<style type="text/css">
	.st0{fill:#3056D3;}
	.st1{fill-rule:evenodd;clip-rule:evenodd;fill:#FFFFFF;}
	.st2{enable-background:new    ;}
</style>
<path class="st0" d="M20,47.5c11,0,20-9,20-20s-9-20-20-20s-20,9-20,20S9,47.5,20,47.5z"/>
<path class="st1" d="M15.2,13.2c2.3,0,4.1,2.8,4.1,6.3s-1.8,6.3-4.1,6.3s-4.1-2.8-4.1-6.3S13,13.2,15.2,13.2L15.2,13.2z M20.4,28.5
	c4.8,0,5.4,3.2,9.5,8.7c2,4-0.6,6.5-5.1,5.4c-1.5-0.9-3.2-1.3-4.9-1.4c-2.5,0.1-3.1,1.7-6,1.6c-2.2-0.1-3.3-1-3.4-2.4
	c-0.2-1.4,0.4-2.5,1.1-3.7C14.3,31.8,17.2,27.9,20.4,28.5L20.4,28.5z M7.3,22.6c-1.7,0.7-2.2,3.3-1.2,5.9S9.3,32.7,11,32
	c1.7-0.7,2.2-3.3,1.2-5.9S9,21.9,7.3,22.6z M32.7,22.6c1.7,0.7,2.3,3.3,1.2,5.9c-1,2.6-3.3,4.2-4.9,3.5c-1.7-0.7-2.2-3.3-1.2-5.9
	C28.8,23.5,31,21.9,32.7,22.6z M24.7,13.2c2.3,0,4.1,2.8,4.1,6.3s-1.9,6.3-4.1,6.3s-4.1-2.8-4.1-6.3S22.4,13.2,24.7,13.2L24.7,13.2z
	"/>
<g class="st2">
	<path d="M74.1,14.6c0.5,0.5,0.7,1.3,0.7,2.4c0,2.1,0,3.8,0,4.8l0,6c0,4.1-0.1,7.2-0.3,9.2c-0.2,2-0.7,3.4-1.3,4.2
		c-0.6,0.8-1.6,1.2-2.8,1.2c-1,0-1.9-0.3-2.7-0.9c-0.8-0.6-1.8-1.7-2.8-3.1c-1-1.4-2.5-3.6-4.4-6.6L55.6,24c0,1,0,2.9,0,5.6l0,10.4
		c0,0.7-0.3,1.3-0.8,1.8c-0.6,0.5-1.3,0.7-2.1,0.7c-0.9,0-1.6-0.2-2.1-0.7c-0.6-0.5-0.8-1.1-0.8-1.8V29.4l0-4.4c0-0.8,0-1.8,0-3.2
		c0-2,0.1-3.6,0.3-4.6c0.2-1.1,0.5-1.9,1-2.3c0.5-0.5,1.2-0.7,2.2-0.7c0.9,0,1.8,0.3,2.6,0.9c0.8,0.6,1.7,1.6,2.7,3.1
		c1,1.5,2.6,3.9,4.7,7.2c1.1,1.8,2.8,4.4,5,8.1l0.8,1.3v-6.7l0-11.5c0-0.7,0.2-1.3,0.7-1.8c0.5-0.5,1.2-0.7,2.3-0.7
		C72.9,13.8,73.7,14,74.1,14.6z"/>
	<path d="M99.2,36.9c0.8,0,1.5,0.2,1.9,0.7c0.5,0.5,0.7,1.1,0.7,1.9c0,1.4-0.7,2.3-2.2,2.6c-1.2,0.2-3.5,0.4-6.8,0.4h-1.3
		c-1.5,0-2.9,0-4.3-0.1c-1.3-0.1-3-0.2-4.9-0.5c-1.2-0.2-1.8-1-1.8-2.4c0-0.7,0.1-1.3,0.4-1.8c0.3-0.5,0.7-0.7,1.3-0.8h0.4
		c0.3-2.2,0.5-4.3,0.4-6.3h-0.3c-0.7,0-1.1-0.2-1.4-0.7c-0.3-0.4-0.5-1.1-0.5-2c0-0.8,0.2-1.4,0.5-1.9c0.3-0.5,0.8-0.7,1.4-0.7H83
		c0-1,0-2.9,0-5.7c-0.9-0.4-1.4-1.2-1.4-2.3c0-0.9,0.2-1.5,0.7-1.9c0.5-0.4,1.2-0.6,2.2-0.8c1.3-0.1,3.7-0.2,7.2-0.2
		c3.4,0,6,0.1,7.8,0.3c0.8,0.1,1.4,0.3,1.9,0.7c0.4,0.4,0.7,1,0.7,1.8c0,0.8-0.2,1.5-0.6,2c-0.4,0.5-1,0.7-1.7,0.7
		c-2.5-0.2-4.7-0.3-6.6-0.3c-0.9,0-2,0-3.3,0.1l-1.1,0l0.1,5.7h0.9c1.4,0,3,0,5,0.1l2.6,0.1c1.1,0,1.6,0.9,1.6,2.6
		c0,0.8-0.2,1.5-0.5,1.9c-0.3,0.5-0.8,0.7-1.3,0.7c-0.8,0-1.5,0-2.1,0l-5.3,0H89c-0.1,2.4-0.2,4.6-0.5,6.6c1,0.1,2.3,0.2,3.9,0.2
		c2.3,0,4.4-0.1,6.3-0.4C98.9,36.9,99,36.9,99.2,36.9z"/>
</g>
<g class="st2">
	<path d="M120,41.1c0,0.5-0.2,1-0.6,1.4S118.6,43,118,43c-0.5,0-0.9-0.1-1.2-0.4l-4-3.6l-3.2-2.8l0,1.7c0,0.8,0,1.8,0,3
		c0,0.6-0.2,1.1-0.5,1.5c-0.4,0.4-0.8,0.6-1.4,0.6c-0.7,0-1.2-0.1-1.5-0.4c-0.3-0.3-0.5-0.7-0.5-1.4c0-0.8,0-2,0.1-3.6
		c0.1-1.3,0.1-2.7,0.1-4.3c0-1.2,0-2.6-0.1-4.3l0-3.4c0-0.5,0.2-0.9,0.6-1.2s0.9-0.5,1.5-0.5s1.1,0.2,1.4,0.5
		c0.4,0.3,0.5,0.8,0.5,1.3l0,4.1c1.4-1,2.5-1.8,3.3-2.4l1.8-1.3l2.5-1.8c0.4-0.3,0.8-0.4,1.2-0.4c0.6,0,1.1,0.2,1.4,0.5
		c0.4,0.3,0.5,0.8,0.5,1.3c0,0.5-0.2,1-0.6,1.3c-0.4,0.3-1,0.7-1.8,1.3c-0.8,0.5-1.3,0.9-1.7,1.1l-1.2,0.7c-1,0.7-2,1.3-2.9,1.8
		c-0.9,0.5-1.3,0.8-1.4,0.9c0.8,0.6,1.4,1.1,2,1.6c0.5,0.4,0.9,0.8,1.3,1l0.8,0.7c-0.1-0.1,0.4,0.3,1.5,1.2c1.1,1,2,1.7,2.8,2.3
		C119.8,40.1,120,40.5,120,41.1z"/>
	<path d="M127.4,41.6c-1.4-0.8-2.5-1.8-3.3-3.2c-0.8-1.4-1.2-3-1.2-4.9c0-1.9,0.4-3.6,1.2-5.1c0.8-1.5,1.9-2.7,3.3-3.5
		c1.4-0.8,3-1.3,4.9-1.3c1.9,0,3.6,0.4,5.1,1.3c1.5,0.9,2.7,2.1,3.6,3.6c0.9,1.5,1.3,3.2,1.3,5c0,1.8-0.4,3.4-1.3,4.8
		c-0.8,1.4-2,2.4-3.5,3.2s-3.2,1.1-5.1,1.1C130.5,42.7,128.8,42.3,127.4,41.6z M135.5,38.5c0.9-0.4,1.6-1.1,2.1-2
		c0.5-0.9,0.8-1.9,0.8-3.1c0-1.2-0.2-2.3-0.7-3.2c-0.5-0.9-1.2-1.7-2-2.2c-0.9-0.5-1.9-0.8-3.1-0.8s-2.2,0.3-3,0.8
		c-0.8,0.5-1.5,1.3-1.9,2.2c-0.5,0.9-0.7,2-0.7,3.2c0,1.9,0.5,3.3,1.6,4.3c1.1,1,2.4,1.5,4.1,1.5C133.6,39.2,134.6,39,135.5,38.5z"
		/>
</g>
<g class="st2">
	<path d="M114,17.5c0.1,0.1,0.2,0.3,0.2,0.5c0,0.6-0.2,1.2-0.5,1.7c-0.3,0.5-0.8,0.9-1.5,1.2c-0.6,0.3-1.3,0.4-2.1,0.4
		c-0.8,0-1.6-0.2-2.3-0.5c-0.7-0.3-1.2-0.9-1.7-1.6c-0.4-0.7-0.6-1.5-0.6-2.5c0-1,0.2-1.9,0.6-2.6c0.4-0.8,0.9-1.4,1.6-1.8
		s1.4-0.7,2.2-0.7c0.6,0,1,0.1,1.5,0.3c0.4,0.2,0.8,0.4,1.1,0.8v-0.5c0-0.2,0.1-0.3,0.2-0.4c0.1-0.1,0.3-0.1,0.5-0.1
		c0.2,0,0.4,0.1,0.5,0.2s0.2,0.3,0.2,0.5v1.4c0,0.5-0.2,0.8-0.7,0.8c-0.3,0-0.5-0.1-0.6-0.3c-0.3-0.4-0.7-0.8-1-1
		c-0.4-0.3-0.8-0.4-1.4-0.4c-0.6,0-1.1,0.2-1.6,0.5c-0.5,0.3-0.9,0.8-1.2,1.4c-0.3,0.6-0.4,1.3-0.4,2c0,0.7,0.2,1.3,0.5,1.8
		c0.3,0.5,0.7,0.9,1.2,1.1c0.5,0.3,1,0.4,1.6,0.4c0.5,0,0.9-0.1,1.3-0.2c0.4-0.2,0.7-0.4,1-0.7c0.3-0.3,0.4-0.7,0.4-1.2
		c0-0.2,0.1-0.4,0.2-0.5c0.1-0.1,0.3-0.2,0.5-0.2C113.7,17.3,113.9,17.4,114,17.5z"/>
	<path d="M123,20.7c0,0.1,0,0.2,0,0.2c0,0.2-0.1,0.3-0.2,0.4s-0.3,0.1-0.5,0.1c-0.2,0-0.3,0-0.4-0.1c-0.1-0.1-0.2-0.2-0.2-0.3
		c-0.2-0.7-0.4-1.4-0.6-2l-3.5,0l-0.6,2c-0.1,0.3-0.3,0.4-0.7,0.4c-0.2,0-0.4-0.1-0.5-0.2c-0.2-0.1-0.2-0.2-0.2-0.4
		c0-0.1,0-0.1,0-0.2c0.9-2.7,1.6-4.8,2.1-6.2l0.4-1.2c0.2-0.6,0.4-1,0.6-1.2c0.2-0.2,0.5-0.4,0.8-0.4c0.3,0,0.5,0.1,0.7,0.3
		c0.2,0.2,0.4,0.6,0.5,1.1c0.4,1.4,0.9,2.9,1.4,4.7h0.4c0.2,0,0.3,0.1,0.4,0.2c0.1,0.1,0.1,0.3,0.1,0.5c0,0.4-0.1,0.6-0.4,0.6h-0.1
		L123,20.7z M120.7,17.8l-0.1-0.3c-0.4-1.2-0.6-2.2-0.8-2.9c0-0.1-0.1-0.2-0.1-0.4c-0.1-0.2-0.1-0.4-0.2-0.5c0-0.1-0.1-0.1-0.1-0.1
		c0,0-0.1,0.1-0.1,0.2c0,0.1-0.1,0.3-0.2,0.5c0,0,0,0.1,0,0.1c0,0,0,0.1-0.1,0.2c0,0.1-0.1,0.2-0.1,0.3c-0.1,0.3-0.2,0.7-0.4,1.2
		c-0.1,0.5-0.3,1.1-0.5,1.8L120.7,17.8z"/>
	<path d="M132,20.2c0.1,0.1,0.1,0.2,0.1,0.3c0,0.2-0.1,0.4-0.2,0.5s-0.3,0.2-0.5,0.2c-0.1,0-0.2,0-0.3-0.1c-0.1,0-0.2-0.1-0.3-0.1
		l-4.2-2.6v2.4c0,0.2-0.1,0.3-0.2,0.4c-0.1,0.1-0.3,0.2-0.5,0.2c-0.2,0-0.4-0.1-0.5-0.2c-0.1-0.1-0.2-0.3-0.2-0.5c0-1.5,0-2.9,0-4.3
		l0-2.3l-0.1,0c-0.1,0-0.1,0-0.1,0c-0.3,0-0.4-0.2-0.4-0.7c0-0.2,0.1-0.3,0.2-0.4c0.1-0.1,0.3-0.2,0.4-0.3v-0.3
		c0-0.2,0.1-0.4,0.2-0.5c0.1-0.1,0.3-0.2,0.5-0.2c0.2,0,0.3,0,0.4,0.1c0.1,0.1,0.1,0.1,0.1,0.2v0.1c0.7-0.2,1.3-0.3,1.8-0.3
		c0.8,0,1.4,0.1,2,0.4c0.6,0.2,1,0.6,1.3,1c0.3,0.4,0.5,0.9,0.5,1.5c0,0.6-0.2,1.1-0.5,1.6c-0.3,0.4-0.8,0.8-1.4,1
		c-0.6,0.2-1.2,0.3-2,0.3c-0.2,0-0.5,0-0.7-0.1l4,2.4C131.9,20,131.9,20.1,132,20.2z M127.6,13.2c-0.3,0.1-0.6,0.2-1,0.3l0,0.5
		c0,0.9,0.1,1.7,0.1,2.3c0.4,0.1,0.9,0.1,1.5,0.1c0.8,0,1.4-0.1,1.8-0.4c0.4-0.3,0.7-0.7,0.7-1.2c0-0.5-0.2-0.9-0.6-1.2
		c-0.4-0.3-1-0.5-1.6-0.5C128.2,13.1,127.9,13.1,127.6,13.2z"/>
	<path d="M140.3,20c0.1,0.1,0.2,0.3,0.2,0.5c0,0.3-0.2,0.5-0.5,0.6c-0.4,0.1-1.1,0.1-2.1,0.1h-0.4c-0.6,0-1.1,0-1.6,0
		c-0.5,0-1-0.1-1.6-0.1c-0.3,0-0.4-0.2-0.4-0.6c0-0.2,0-0.3,0.1-0.4c0.1-0.1,0.2-0.2,0.3-0.2h0.2c0.1-0.8,0.2-1.8,0.2-2.9h-0.1
		c-0.4,0-0.5-0.2-0.5-0.6c0-0.4,0.2-0.6,0.5-0.6h0.2V14v-0.9c-0.3-0.1-0.4-0.3-0.4-0.6c0-0.2,0.1-0.4,0.2-0.4
		c0.1-0.1,0.3-0.1,0.5-0.2c0.5-0.1,1.3-0.1,2.4-0.1c1.3,0,2.2,0,2.7,0.1c0.2,0,0.3,0.1,0.4,0.2c0.1,0.1,0.2,0.2,0.2,0.4
		c0,0.2-0.1,0.4-0.1,0.5c-0.1,0.1-0.2,0.2-0.4,0.1c-0.9-0.1-1.7-0.1-2.4-0.1c-0.6,0-1.2,0-1.7,0.1l0.1,2.6l0.7,0c0.6,0,1.1,0,1.6,0
		l0.8,0c0.3,0,0.4,0.2,0.4,0.6c0,0.2,0,0.3-0.1,0.5c-0.1,0.1-0.2,0.2-0.3,0.2l-0.7,0c-0.4,0-1,0-1.7,0h-0.7c0,1-0.1,2-0.2,3
		c0.5,0,1.2,0.1,1.8,0.1c0.5,0,0.8,0,1.1,0c0.3,0,0.6,0,1-0.1C140,19.8,140.2,19.9,140.3,20z"/>
</g>
</svg>
